<svg width="40" height="41" viewBox="0 0 40 41" fill="none" xmlns="http://www.w3.org/2000/svg">
<g clip-path="url(#clip0_756_10566)">
<rect x="0.5" y="1" width="39" height="39" fill="white"/>
<rect x="0.5" y="1" width="39" height="39" stroke="url(#paint0_linear_756_10566)"/>
<path d="M20 8.5C21.1016 8.5 22.1641 8.64062 23.1875 8.92188C24.2109 9.20312 25.168 9.60547 26.0586 10.1289C26.9492 10.6523 27.7578 11.2773 28.4844 12.0039C29.2109 12.7305 29.8359 13.543 30.3594 14.4414C30.8828 15.3398 31.2852 16.2969 31.5664 17.3125C31.8477 18.3281 31.9922 19.3906 32 20.5C32 21.6016 31.8594 22.6641 31.5781 23.6875C31.2969 24.7109 30.8945 25.668 30.3711 26.5586C29.8477 27.4492 29.2227 28.2578 28.4961 28.9844C27.7695 29.7109 26.957 30.3359 26.0586 30.8594C25.1602 31.3828 24.2031 31.7852 23.1875 32.0664C22.1719 32.3477 21.1094 32.4922 20 32.5C18.8984 32.5 17.8359 32.3594 16.8125 32.0781C15.7891 31.7969 14.832 31.3945 13.9414 30.8711C13.0508 30.3477 12.2422 29.7227 11.5156 28.9961C10.7891 28.2695 10.1641 27.457 9.64062 26.5586C9.11719 25.6602 8.71484 24.707 8.43359 23.6992C8.15234 22.6914 8.00781 21.625 8 20.5C8 19.3984 8.14062 18.3359 8.42188 17.3125C8.70312 16.2891 9.10547 15.332 9.62891 14.4414C10.1523 13.5508 10.7773 12.7422 11.5039 12.0156C12.2305 11.2891 13.043 10.6641 13.9414 10.1406C14.8398 9.61719 15.793 9.21484 16.8008 8.93359C17.8086 8.65234 18.875 8.50781 20 8.5ZM20 31C20.9609 31 21.8867 30.875 22.7773 30.625C23.668 30.375 24.5039 30.0234 25.2852 29.5703C26.0664 29.1172 26.7773 28.5664 27.418 27.918C28.0586 27.2695 28.6055 26.5625 29.0586 25.7969C29.5117 25.0312 29.8672 24.1953 30.125 23.2891C30.3828 22.3828 30.5078 21.4531 30.5 20.5C30.5 19.5391 30.375 18.6133 30.125 17.7227C29.875 16.832 29.5234 15.9961 29.0703 15.2148C28.6172 14.4336 28.0664 13.7227 27.418 13.082C26.7695 12.4414 26.0625 11.8945 25.2969 11.4414C24.5312 10.9883 23.6953 10.6328 22.7891 10.375C21.8828 10.1172 20.9531 9.99219 20 10C19.0391 10 18.1133 10.125 17.2227 10.375C16.332 10.625 15.4961 10.9766 14.7148 11.4297C13.9336 11.8828 13.2227 12.4336 12.582 13.082C11.9414 13.7305 11.3945 14.4375 10.9414 15.2031C10.4883 15.9688 10.1328 16.8047 9.875 17.7109C9.61719 18.6172 9.49219 19.5469 9.5 20.5C9.5 21.4609 9.625 22.3867 9.875 23.2773C10.125 24.168 10.4766 25.0039 10.9297 25.7852C11.3828 26.5664 11.9336 27.2773 12.582 27.918C13.2305 28.5586 13.9375 29.1055 14.7031 29.5586C15.4688 30.0117 16.3047 30.3672 17.2109 30.625C18.1172 30.8828 19.0469 31.0078 20 31ZM26.9961 20.6875L27.5586 19H28.4375L27.4414 22H26.5625L26 20.3125L25.4375 22H24.5586L23.5625 19H24.4414L25.0039 20.6875L25.5664 19H26.4336L26.9961 20.6875ZM21.5586 19H22.4375L21.4414 22H20.5625L20 20.3125L19.4375 22H18.5586L17.5625 19H18.4414L19.0039 20.6875L19.5664 19H20.4336L20.9961 20.6875L21.5586 19ZM15.5586 19H16.4375L15.4414 22H14.5625L14 20.3125L13.4375 22H12.5586L11.5625 19H12.4414L13.0039 20.6875L13.5664 19H14.4336L14.9961 20.6875L15.5586 19Z" fill="#6941C6"/>
<path d="M20 8.5C21.1016 8.5 22.1641 8.64062 23.1875 8.92188C24.2109 9.20312 25.168 9.60547 26.0586 10.1289C26.9492 10.6523 27.7578 11.2773 28.4844 12.0039C29.2109 12.7305 29.8359 13.543 30.3594 14.4414C30.8828 15.3398 31.2852 16.2969 31.5664 17.3125C31.8477 18.3281 31.9922 19.3906 32 20.5C32 21.6016 31.8594 22.6641 31.5781 23.6875C31.2969 24.7109 30.8945 25.668 30.3711 26.5586C29.8477 27.4492 29.2227 28.2578 28.4961 28.9844C27.7695 29.7109 26.957 30.3359 26.0586 30.8594C25.1602 31.3828 24.2031 31.7852 23.1875 32.0664C22.1719 32.3477 21.1094 32.4922 20 32.5C18.8984 32.5 17.8359 32.3594 16.8125 32.0781C15.7891 31.7969 14.832 31.3945 13.9414 30.8711C13.0508 30.3477 12.2422 29.7227 11.5156 28.9961C10.7891 28.2695 10.1641 27.457 9.64062 26.5586C9.11719 25.6602 8.71484 24.707 8.43359 23.6992C8.15234 22.6914 8.00781 21.625 8 20.5C8 19.3984 8.14062 18.3359 8.42188 17.3125C8.70312 16.2891 9.10547 15.332 9.62891 14.4414C10.1523 13.5508 10.7773 12.7422 11.5039 12.0156C12.2305 11.2891 13.043 10.6641 13.9414 10.1406C14.8398 9.61719 15.793 9.21484 16.8008 8.93359C17.8086 8.65234 18.875 8.50781 20 8.5ZM20 31C20.9609 31 21.8867 30.875 22.7773 30.625C23.668 30.375 24.5039 30.0234 25.2852 29.5703C26.0664 29.1172 26.7773 28.5664 27.418 27.918C28.0586 27.2695 28.6055 26.5625 29.0586 25.7969C29.5117 25.0312 29.8672 24.1953 30.125 23.2891C30.3828 22.3828 30.5078 21.4531 30.5 20.5C30.5 19.5391 30.375 18.6133 30.125 17.7227C29.875 16.832 29.5234 15.9961 29.0703 15.2148C28.6172 14.4336 28.0664 13.7227 27.418 13.082C26.7695 12.4414 26.0625 11.8945 25.2969 11.4414C24.5312 10.9883 23.6953 10.6328 22.7891 10.375C21.8828 10.1172 20.9531 9.99219 20 10C19.0391 10 18.1133 10.125 17.2227 10.375C16.332 10.625 15.4961 10.9766 14.7148 11.4297C13.9336 11.8828 13.2227 12.4336 12.582 13.082C11.9414 13.7305 11.3945 14.4375 10.9414 15.2031C10.4883 15.9688 10.1328 16.8047 9.875 17.7109C9.61719 18.6172 9.49219 19.5469 9.5 20.5C9.5 21.4609 9.625 22.3867 9.875 23.2773C10.125 24.168 10.4766 25.0039 10.9297 25.7852C11.3828 26.5664 11.9336 27.2773 12.582 27.918C13.2305 28.5586 13.9375 29.1055 14.7031 29.5586C15.4688 30.0117 16.3047 30.3672 17.2109 30.625C18.1172 30.8828 19.0469 31.0078 20 31ZM26.9961 20.6875L27.5586 19H28.4375L27.4414 22H26.5625L26 20.3125L25.4375 22H24.5586L23.5625 19H24.4414L25.0039 20.6875L25.5664 19H26.4336L26.9961 20.6875ZM21.5586 19H22.4375L21.4414 22H20.5625L20 20.3125L19.4375 22H18.5586L17.5625 19H18.4414L19.0039 20.6875L19.5664 19H20.4336L20.9961 20.6875L21.5586 19ZM15.5586 19H16.4375L15.4414 22H14.5625L14 20.3125L13.4375 22H12.5586L11.5625 19H12.4414L13.0039 20.6875L13.5664 19H14.4336L14.9961 20.6875L15.5586 19Z" fill="url(#paint1_linear_756_10566)"/>
</g>
<rect x="0.5" y="1" width="39" height="39" rx="19.5" stroke="url(#paint2_linear_756_10566)"/>
<defs>
<linearGradient id="paint0_linear_756_10566" x1="0" y1="20.5" x2="40" y2="20.5" gradientUnits="userSpaceOnUse">
<stop stop-color="#BF64E7"/>
<stop offset="1" stop-color="#4E2EF5"/>
</linearGradient>
<linearGradient id="paint1_linear_756_10566" x1="8" y1="20.5" x2="32" y2="20.5" gradientUnits="userSpaceOnUse">
<stop stop-color="#BF64E7"/>
<stop offset="1" stop-color="#4E2EF5"/>
</linearGradient>
<linearGradient id="paint2_linear_756_10566" x1="0" y1="20.5" x2="40" y2="20.5" gradientUnits="userSpaceOnUse">
<stop stop-color="#BF64E7"/>
<stop offset="1" stop-color="#4E2EF5"/>
</linearGradient>
<clipPath id="clip0_756_10566">
<rect y="0.5" width="40" height="40" rx="20" fill="white"/>
</clipPath>
</defs>
</svg>
