<svg width="40" height="41" viewBox="0 0 40 41" fill="none" xmlns="http://www.w3.org/2000/svg">
<rect x="0.5" y="1.14355" width="39" height="39" fill="white"/>
<rect x="0.5" y="1.14355" width="39" height="39" stroke="url(#paint0_linear_21_135)"/>
<path d="M30.3895 10.437C30.3809 10.3956 30.3607 10.3574 30.3312 10.327C30.3018 10.2966 30.2642 10.2753 30.2231 10.2655C27.4776 9.59422 21.134 11.9863 17.6971 15.4217C17.0841 16.0298 16.5253 16.6901 16.027 17.3952C14.9671 17.3014 13.9073 17.3797 13.004 17.7734C10.4554 18.8952 9.71337 21.822 9.50665 23.0811C9.49492 23.15 9.49934 23.2207 9.51957 23.2876C9.53979 23.3545 9.57526 23.4158 9.62319 23.4667C9.67112 23.5176 9.73021 23.5567 9.79579 23.5809C9.86138 23.6051 9.93169 23.6137 10.0012 23.6061L14.0938 23.1547C14.0967 23.4633 14.1154 23.7715 14.1496 24.0781C14.1702 24.2911 14.2647 24.4901 14.4168 24.6406L16.0016 26.2217C16.1523 26.3736 16.3513 26.468 16.5641 26.4889C16.8691 26.523 17.1756 26.5416 17.4824 26.5447L17.0334 30.6322C17.0259 30.7017 17.0346 30.7719 17.0588 30.8375C17.083 30.903 17.1221 30.962 17.1729 31.01C17.2238 31.0579 17.2851 31.0933 17.3519 31.1136C17.4188 31.1339 17.4895 31.1384 17.5584 31.1267C18.8151 30.9252 21.7471 30.1831 22.8623 27.6345C23.256 26.7313 23.3366 25.6766 23.2457 24.6219C23.9525 24.1235 24.6145 23.5645 25.2243 22.9513C28.672 19.5209 31.0504 13.3189 30.3895 10.437ZM21.7846 18.8591C21.4698 18.5445 21.2554 18.1435 21.1684 17.7071C21.0815 17.2706 21.126 16.8181 21.2962 16.4069C21.4665 15.9956 21.7549 15.6441 22.1249 15.3969C22.4949 15.1496 22.93 15.0176 23.3751 15.0176C23.8202 15.0176 24.2552 15.1496 24.6253 15.3969C24.9953 15.6441 25.2837 15.9956 25.454 16.4069C25.6242 16.8181 25.6687 17.2706 25.5817 17.7071C25.4948 18.1435 25.2804 18.5445 24.9656 18.8591C24.7568 19.0681 24.5089 19.234 24.236 19.3471C23.9631 19.4603 23.6705 19.5185 23.3751 19.5185C23.0796 19.5185 22.7871 19.4603 22.5142 19.3471C22.2413 19.234 21.9934 19.0681 21.7846 18.8591Z" fill="#6941C6"/>
<path d="M30.3895 10.437C30.3809 10.3956 30.3607 10.3574 30.3312 10.327C30.3018 10.2966 30.2642 10.2753 30.2231 10.2655C27.4776 9.59422 21.134 11.9863 17.6971 15.4217C17.0841 16.0298 16.5253 16.6901 16.027 17.3952C14.9671 17.3014 13.9073 17.3797 13.004 17.7734C10.4554 18.8952 9.71337 21.822 9.50665 23.0811C9.49492 23.15 9.49934 23.2207 9.51957 23.2876C9.53979 23.3545 9.57526 23.4158 9.62319 23.4667C9.67112 23.5176 9.73021 23.5567 9.79579 23.5809C9.86138 23.6051 9.93169 23.6137 10.0012 23.6061L14.0938 23.1547C14.0967 23.4633 14.1154 23.7715 14.1496 24.0781C14.1702 24.2911 14.2647 24.4901 14.4168 24.6406L16.0016 26.2217C16.1523 26.3736 16.3513 26.468 16.5641 26.4889C16.8691 26.523 17.1756 26.5416 17.4824 26.5447L17.0334 30.6322C17.0259 30.7017 17.0346 30.7719 17.0588 30.8375C17.083 30.903 17.1221 30.962 17.1729 31.01C17.2238 31.0579 17.2851 31.0933 17.3519 31.1136C17.4188 31.1339 17.4895 31.1384 17.5584 31.1267C18.8151 30.9252 21.7471 30.1831 22.8623 27.6345C23.256 26.7313 23.3366 25.6766 23.2457 24.6219C23.9525 24.1235 24.6145 23.5645 25.2243 22.9513C28.672 19.5209 31.0504 13.3189 30.3895 10.437ZM21.7846 18.8591C21.4698 18.5445 21.2554 18.1435 21.1684 17.7071C21.0815 17.2706 21.126 16.8181 21.2962 16.4069C21.4665 15.9956 21.7549 15.6441 22.1249 15.3969C22.4949 15.1496 22.93 15.0176 23.3751 15.0176C23.8202 15.0176 24.2552 15.1496 24.6253 15.3969C24.9953 15.6441 25.2837 15.9956 25.454 16.4069C25.6242 16.8181 25.6687 17.2706 25.5817 17.7071C25.4948 18.1435 25.2804 18.5445 24.9656 18.8591C24.7568 19.0681 24.5089 19.234 24.236 19.3471C23.9631 19.4603 23.6705 19.5185 23.3751 19.5185C23.0796 19.5185 22.7871 19.4603 22.5142 19.3471C22.2413 19.234 21.9934 19.0681 21.7846 18.8591Z" fill="url(#paint1_linear_21_135)"/>
<path d="M15.8937 27.3668C15.6369 27.6242 15.2248 27.7245 14.7289 27.8103C13.6147 28.0001 12.6308 27.0373 12.8309 25.9109C12.9073 25.4839 13.1333 24.8853 13.2739 24.7446C13.3046 24.7145 13.3251 24.6754 13.3324 24.633C13.3397 24.5906 13.3334 24.5469 13.3144 24.5083C13.2955 24.4696 13.2649 24.4379 13.2269 24.4176C13.1889 24.3974 13.1455 24.3896 13.1028 24.3954C12.4797 24.4717 11.9001 24.7542 11.4561 25.1979C10.3541 26.3009 10.25 30.3936 10.25 30.3936C10.25 30.3936 14.345 30.2895 15.447 29.1865C15.8922 28.7429 16.175 28.1624 16.25 27.5384C16.2673 27.3425 16.0287 27.2257 15.8937 27.3668Z" fill="#6941C6"/>
<path d="M15.8937 27.3668C15.6369 27.6242 15.2248 27.7245 14.7289 27.8103C13.6147 28.0001 12.6308 27.0373 12.8309 25.9109C12.9073 25.4839 13.1333 24.8853 13.2739 24.7446C13.3046 24.7145 13.3251 24.6754 13.3324 24.633C13.3397 24.5906 13.3334 24.5469 13.3144 24.5083C13.2955 24.4696 13.2649 24.4379 13.2269 24.4176C13.1889 24.3974 13.1455 24.3896 13.1028 24.3954C12.4797 24.4717 11.9001 24.7542 11.4561 25.1979C10.3541 26.3009 10.25 30.3936 10.25 30.3936C10.25 30.3936 14.345 30.2895 15.447 29.1865C15.8922 28.7429 16.175 28.1624 16.25 27.5384C16.2673 27.3425 16.0287 27.2257 15.8937 27.3668Z" fill="url(#paint2_linear_21_135)"/>
<defs>
<linearGradient id="paint0_linear_21_135" x1="0" y1="20.6436" x2="40" y2="20.6436" gradientUnits="userSpaceOnUse">
<stop stop-color="#BF64E7"/>
<stop offset="1" stop-color="#4E2EF5"/>
</linearGradient>
<linearGradient id="paint1_linear_21_135" x1="9.50024" y1="20.6427" x2="30.4999" y2="20.6427" gradientUnits="userSpaceOnUse">
<stop stop-color="#BF64E7"/>
<stop offset="1" stop-color="#4E2EF5"/>
</linearGradient>
<linearGradient id="paint2_linear_21_135" x1="10.25" y1="27.3936" x2="16.2509" y2="27.3936" gradientUnits="userSpaceOnUse">
<stop stop-color="#BF64E7"/>
<stop offset="1" stop-color="#4E2EF5"/>
</linearGradient>
</defs>
</svg>
