<svg width="41" height="41" viewBox="0 0 41 41" fill="none" xmlns="http://www.w3.org/2000/svg">
<rect width="40" height="40" transform="translate(0.5 0.643555)" fill="white"/>
<path d="M30.4001 17.5436L28.7001 18.5436L24.7001 11.6436L26.4001 10.6436L30.4001 17.5436ZM18.3001 16.5436L21.3001 21.7436L27.4001 18.2436L24.4001 13.0436L18.3001 16.5436ZM19.9001 21.3436L17.9001 17.8436L13.6001 20.3436L15.6001 23.8436L19.9001 21.3436ZM10.6001 23.2436L11.6001 24.9436L14.2001 23.4436L13.2001 21.7436L10.6001 23.2436ZM20.6001 22.6436L20.3001 22.2436L16.0001 24.7436L16.3001 25.1436C16.5001 25.4436 16.8001 25.7436 17.1001 25.9436L15.5001 30.6436H17.5001L18.9001 26.3436H19.0001L20.5001 30.6436H22.5001L20.6001 25.0436C21.1001 24.3436 21.1001 23.4436 20.6001 22.6436Z" fill="#6941C6"/>
<path d="M30.4001 17.5436L28.7001 18.5436L24.7001 11.6436L26.4001 10.6436L30.4001 17.5436ZM18.3001 16.5436L21.3001 21.7436L27.4001 18.2436L24.4001 13.0436L18.3001 16.5436ZM19.9001 21.3436L17.9001 17.8436L13.6001 20.3436L15.6001 23.8436L19.9001 21.3436ZM10.6001 23.2436L11.6001 24.9436L14.2001 23.4436L13.2001 21.7436L10.6001 23.2436ZM20.6001 22.6436L20.3001 22.2436L16.0001 24.7436L16.3001 25.1436C16.5001 25.4436 16.8001 25.7436 17.1001 25.9436L15.5001 30.6436H17.5001L18.9001 26.3436H19.0001L20.5001 30.6436H22.5001L20.6001 25.0436C21.1001 24.3436 21.1001 23.4436 20.6001 22.6436Z" fill="url(#paint0_linear_21_140)"/>
<defs>
<linearGradient id="paint0_linear_21_140" x1="10.6001" y1="20.6436" x2="30.4001" y2="20.6436" gradientUnits="userSpaceOnUse">
<stop stop-color="#BF64E7"/>
<stop offset="1" stop-color="#4E2EF5"/>
</linearGradient>
</defs>
</svg>
