<svg width="23" height="23" viewBox="0 0 23 23" fill="none" xmlns="http://www.w3.org/2000/svg">
<rect width="23" height="23" fill="url(#paint0_linear_756_7902)"/>
<path d="M17.7303 8.07344C17.6751 7.85743 17.5693 7.65765 17.4217 7.49057C17.274 7.32349 17.0888 7.1939 16.8812 7.1125C14.8727 6.33672 11.6758 6.34375 11.5 6.34375C11.3242 6.34375 8.12734 6.33672 6.11875 7.1125C5.91119 7.1939 5.72596 7.32349 5.57834 7.49057C5.43072 7.65765 5.32494 7.85743 5.26973 8.07344C5.11797 8.65821 4.9375 9.72696 4.9375 11.5C4.9375 13.273 5.11797 14.3418 5.26973 14.9266C5.32485 15.1427 5.4306 15.3426 5.57822 15.5098C5.72585 15.677 5.91112 15.8066 6.11875 15.8881C8.04297 16.6305 11.0547 16.6563 11.4613 16.6563H11.5387C11.9453 16.6563 14.9588 16.6305 16.8812 15.8881C17.0889 15.8066 17.2742 15.677 17.4218 15.5098C17.5694 15.3426 17.6751 15.1427 17.7303 14.9266C17.882 14.3406 18.0625 13.273 18.0625 11.5C18.0625 9.72696 17.882 8.65821 17.7303 8.07344ZM13.4096 11.882L11.0658 13.5227C10.9957 13.5718 10.9135 13.6008 10.8281 13.6065C10.7427 13.6121 10.6573 13.5944 10.5813 13.555C10.5053 13.5156 10.4415 13.4562 10.3969 13.3831C10.3522 13.3101 10.3285 13.2262 10.3281 13.1406V9.85938C10.3281 9.77363 10.3517 9.68953 10.3962 9.61623C10.4407 9.54293 10.5045 9.48325 10.5805 9.44367C10.6566 9.40409 10.7421 9.38614 10.8276 9.39177C10.9132 9.3974 10.9956 9.42639 11.0658 9.47559L13.4096 11.1162C13.4712 11.1594 13.5216 11.2169 13.5563 11.2837C13.591 11.3505 13.6092 11.4247 13.6092 11.5C13.6092 11.5753 13.591 11.6495 13.5563 11.7163C13.5216 11.7831 13.4712 11.8406 13.4096 11.8838V11.882Z" fill="white"/>
<defs>
<linearGradient id="paint0_linear_756_7902" x1="0" y1="11.5" x2="23" y2="11.5" gradientUnits="userSpaceOnUse">
<stop stop-color="#BF64E7"/>
<stop offset="1" stop-color="#4E2EF5"/>
</linearGradient>
</defs>
</svg>
