<svg width="41" height="40" viewBox="0 0 41 40" fill="none" xmlns="http://www.w3.org/2000/svg">
<g clip-path="url(#clip0_756_10580)">
<rect width="40" height="40" transform="translate(0.5)" fill="white"/>
<path d="M20.5 16L17.5 17.75V21.25L20.5 23L23.5 21.25V17.75L20.5 16ZM22.017 18.04L20.487 18.932L18.97 18.047L20.5 17.155L22.017 18.04ZM18.49 18.922L19.974 19.788V21.538L18.49 20.673V18.922ZM20.964 21.575V19.808L22.51 18.906V20.673L20.964 21.575ZM11.5 8L8.5 9.75V13.25L11.5 15L14.5 13.25V9.75L11.5 8ZM13.017 10.04L11.487 10.932L9.97 10.047L11.5 9.155L13.017 10.04ZM9.49 10.921L10.974 11.787V13.537L9.49 12.674V10.921ZM11.964 13.574V11.808L13.51 10.906V12.673L11.964 13.574ZM11.5 25L8.5 26.75V30.25L11.5 32L14.5 30.25V26.75L11.5 25ZM13.017 27.04L11.487 27.932L9.97 27.047L11.5 26.155L13.017 27.04ZM9.49 27.922L10.974 28.788V30.538L9.49 29.674V27.922ZM11.964 30.575V28.808L13.51 27.906V29.673L11.964 30.575ZM29.5 8L26.5 9.75V13.25L29.5 15L32.5 13.25V9.75L29.5 8ZM31.017 10.04L29.487 10.932L27.97 10.047L29.5 9.155L31.017 10.04ZM27.49 10.922L28.974 11.788V13.538L27.49 12.673V10.922ZM29.964 13.575V11.808L31.51 10.906V12.673L29.964 13.575ZM29.5 25L26.5 26.75V30.25L29.5 32L32.5 30.25V26.75L29.5 25ZM31.017 27.04L29.487 27.932L27.97 27.047L29.5 26.155L31.017 27.04ZM27.49 27.922L28.974 28.788V30.538L27.49 29.673V27.922ZM29.964 30.575V28.808L31.51 27.906V29.673L29.964 30.575ZM17.5 11H23.5V12H17.5V11ZM17.5 28H23.5V29H17.5V28ZM12 17V23H11V17H12ZM15.793 16.828L13.672 14.707L14.379 14L16.5 16.12L15.793 16.828ZM24.5 16.293L26.621 14.172L27.328 14.879L25.207 17L24.5 16.293ZM16.628 22.879L14.507 25L13.8 24.293L15.921 22.172L16.628 22.879ZM25.379 22.129L27.5 24.25L26.793 24.957L24.672 22.836L25.379 22.129ZM30 17V23H29V17H30Z" fill="#6941C6"/>
<path d="M20.5 16L17.5 17.75V21.25L20.5 23L23.5 21.25V17.75L20.5 16ZM22.017 18.04L20.487 18.932L18.97 18.047L20.5 17.155L22.017 18.04ZM18.49 18.922L19.974 19.788V21.538L18.49 20.673V18.922ZM20.964 21.575V19.808L22.51 18.906V20.673L20.964 21.575ZM11.5 8L8.5 9.75V13.25L11.5 15L14.5 13.25V9.75L11.5 8ZM13.017 10.04L11.487 10.932L9.97 10.047L11.5 9.155L13.017 10.04ZM9.49 10.921L10.974 11.787V13.537L9.49 12.674V10.921ZM11.964 13.574V11.808L13.51 10.906V12.673L11.964 13.574ZM11.5 25L8.5 26.75V30.25L11.5 32L14.5 30.25V26.75L11.5 25ZM13.017 27.04L11.487 27.932L9.97 27.047L11.5 26.155L13.017 27.04ZM9.49 27.922L10.974 28.788V30.538L9.49 29.674V27.922ZM11.964 30.575V28.808L13.51 27.906V29.673L11.964 30.575ZM29.5 8L26.5 9.75V13.25L29.5 15L32.5 13.25V9.75L29.5 8ZM31.017 10.04L29.487 10.932L27.97 10.047L29.5 9.155L31.017 10.04ZM27.49 10.922L28.974 11.788V13.538L27.49 12.673V10.922ZM29.964 13.575V11.808L31.51 10.906V12.673L29.964 13.575ZM29.5 25L26.5 26.75V30.25L29.5 32L32.5 30.25V26.75L29.5 25ZM31.017 27.04L29.487 27.932L27.97 27.047L29.5 26.155L31.017 27.04ZM27.49 27.922L28.974 28.788V30.538L27.49 29.673V27.922ZM29.964 30.575V28.808L31.51 27.906V29.673L29.964 30.575ZM17.5 11H23.5V12H17.5V11ZM17.5 28H23.5V29H17.5V28ZM12 17V23H11V17H12ZM15.793 16.828L13.672 14.707L14.379 14L16.5 16.12L15.793 16.828ZM24.5 16.293L26.621 14.172L27.328 14.879L25.207 17L24.5 16.293ZM16.628 22.879L14.507 25L13.8 24.293L15.921 22.172L16.628 22.879ZM25.379 22.129L27.5 24.25L26.793 24.957L24.672 22.836L25.379 22.129ZM30 17V23H29V17H30Z" fill="url(#paint0_linear_756_10580)"/>
</g>
<rect x="1" y="0.5" width="39" height="39" rx="19.5" stroke="url(#paint1_linear_756_10580)"/>
<defs>
<linearGradient id="paint0_linear_756_10580" x1="8.5" y1="20" x2="32.5" y2="20" gradientUnits="userSpaceOnUse">
<stop stop-color="#BF64E7"/>
<stop offset="1" stop-color="#4E2EF5"/>
</linearGradient>
<linearGradient id="paint1_linear_756_10580" x1="0.5" y1="20" x2="40.5" y2="20" gradientUnits="userSpaceOnUse">
<stop stop-color="#BF64E7"/>
<stop offset="1" stop-color="#4E2EF5"/>
</linearGradient>
<clipPath id="clip0_756_10580">
<rect x="0.5" width="40" height="40" rx="20" fill="white"/>
</clipPath>
</defs>
</svg>
