<svg width="40" height="41" viewBox="0 0 40 41" fill="none" xmlns="http://www.w3.org/2000/svg">
<rect x="0.5" y="1" width="39" height="39" fill="white"/>
<rect x="0.5" y="1" width="39" height="39" stroke="url(#paint0_linear_635_2046)"/>
<path d="M30.3895 10.2935C30.3809 10.252 30.3607 10.2139 30.3312 10.1835C30.3018 10.1531 30.2642 10.1317 30.2231 10.1219C27.4776 9.45067 21.134 11.8427 17.6971 15.2782C17.0841 15.8862 16.5253 16.5465 16.027 17.2516C14.9671 17.1579 13.9073 17.2361 13.004 17.6299C10.4554 18.7516 9.71337 21.6785 9.50665 22.9375C9.49492 23.0065 9.49934 23.0772 9.51957 23.1441C9.53979 23.211 9.57526 23.2723 9.62319 23.3232C9.67112 23.3741 9.73021 23.4131 9.79579 23.4373C9.86138 23.4615 9.93169 23.4701 10.0012 23.4625L14.0938 23.0111C14.0967 23.3197 14.1154 23.6279 14.1496 23.9346C14.1702 24.1475 14.2647 24.3466 14.4168 24.4971L16.0016 26.0782C16.1523 26.23 16.3513 26.3245 16.5641 26.3454C16.8691 26.3794 17.1756 26.3981 17.4824 26.4011L17.0334 30.4886C17.0259 30.5581 17.0346 30.6284 17.0588 30.6939C17.083 30.7594 17.1221 30.8185 17.1729 30.8664C17.2238 30.9143 17.2851 30.9498 17.3519 30.97C17.4188 30.9903 17.4895 30.9948 17.5584 30.9832C18.8151 30.7816 21.7471 30.0396 22.8623 27.491C23.256 26.5877 23.3366 25.533 23.2457 24.4783C23.9525 23.98 24.6145 23.421 25.2243 22.8077C28.672 19.3774 31.0504 13.1754 30.3895 10.2935ZM21.7846 18.7155C21.4698 18.4009 21.2554 18 21.1684 17.5635C21.0815 17.127 21.126 16.6745 21.2962 16.2633C21.4665 15.8521 21.7549 15.5006 22.1249 15.2533C22.4949 15.006 22.93 14.874 23.3751 14.874C23.8202 14.874 24.2552 15.006 24.6253 15.2533C24.9953 15.5006 25.2837 15.8521 25.454 16.2633C25.6242 16.6745 25.6687 17.127 25.5817 17.5635C25.4948 18 25.2804 18.4009 24.9656 18.7155C24.7568 18.9246 24.5089 19.0904 24.236 19.2036C23.9631 19.3167 23.6705 19.375 23.3751 19.375C23.0796 19.375 22.7871 19.3167 22.5142 19.2036C22.2413 19.0904 21.9934 18.9246 21.7846 18.7155Z" fill="#6941C6"/>
<path d="M30.3895 10.2935C30.3809 10.252 30.3607 10.2139 30.3312 10.1835C30.3018 10.1531 30.2642 10.1317 30.2231 10.1219C27.4776 9.45067 21.134 11.8427 17.6971 15.2782C17.0841 15.8862 16.5253 16.5465 16.027 17.2516C14.9671 17.1579 13.9073 17.2361 13.004 17.6299C10.4554 18.7516 9.71337 21.6785 9.50665 22.9375C9.49492 23.0065 9.49934 23.0772 9.51957 23.1441C9.53979 23.211 9.57526 23.2723 9.62319 23.3232C9.67112 23.3741 9.73021 23.4131 9.79579 23.4373C9.86138 23.4615 9.93169 23.4701 10.0012 23.4625L14.0938 23.0111C14.0967 23.3197 14.1154 23.6279 14.1496 23.9346C14.1702 24.1475 14.2647 24.3466 14.4168 24.4971L16.0016 26.0782C16.1523 26.23 16.3513 26.3245 16.5641 26.3454C16.8691 26.3794 17.1756 26.3981 17.4824 26.4011L17.0334 30.4886C17.0259 30.5581 17.0346 30.6284 17.0588 30.6939C17.083 30.7594 17.1221 30.8185 17.1729 30.8664C17.2238 30.9143 17.2851 30.9498 17.3519 30.97C17.4188 30.9903 17.4895 30.9948 17.5584 30.9832C18.8151 30.7816 21.7471 30.0396 22.8623 27.491C23.256 26.5877 23.3366 25.533 23.2457 24.4783C23.9525 23.98 24.6145 23.421 25.2243 22.8077C28.672 19.3774 31.0504 13.1754 30.3895 10.2935ZM21.7846 18.7155C21.4698 18.4009 21.2554 18 21.1684 17.5635C21.0815 17.127 21.126 16.6745 21.2962 16.2633C21.4665 15.8521 21.7549 15.5006 22.1249 15.2533C22.4949 15.006 22.93 14.874 23.3751 14.874C23.8202 14.874 24.2552 15.006 24.6253 15.2533C24.9953 15.5006 25.2837 15.8521 25.454 16.2633C25.6242 16.6745 25.6687 17.127 25.5817 17.5635C25.4948 18 25.2804 18.4009 24.9656 18.7155C24.7568 18.9246 24.5089 19.0904 24.236 19.2036C23.9631 19.3167 23.6705 19.375 23.3751 19.375C23.0796 19.375 22.7871 19.3167 22.5142 19.2036C22.2413 19.0904 21.9934 18.9246 21.7846 18.7155Z" fill="url(#paint1_linear_635_2046)"/>
<path d="M15.8937 27.2233C15.6369 27.4806 15.2248 27.5809 14.7289 27.6667C13.6147 27.8566 12.6308 26.8938 12.8309 25.7673C12.9073 25.3403 13.1333 24.7417 13.2739 24.6011C13.3046 24.571 13.3251 24.5319 13.3324 24.4895C13.3397 24.447 13.3334 24.4034 13.3144 24.3647C13.2955 24.3261 13.2649 24.2943 13.2269 24.2741C13.1889 24.2538 13.1455 24.2461 13.1028 24.2519C12.4797 24.3281 11.9001 24.6106 11.4561 25.0544C10.3541 26.1573 10.25 30.25 10.25 30.25C10.25 30.25 14.345 30.1459 15.447 29.043C15.8922 28.5993 16.175 28.0188 16.25 27.3948C16.2673 27.1989 16.0287 27.0822 15.8937 27.2233Z" fill="#6941C6"/>
<path d="M15.8937 27.2233C15.6369 27.4806 15.2248 27.5809 14.7289 27.6667C13.6147 27.8566 12.6308 26.8938 12.8309 25.7673C12.9073 25.3403 13.1333 24.7417 13.2739 24.6011C13.3046 24.571 13.3251 24.5319 13.3324 24.4895C13.3397 24.447 13.3334 24.4034 13.3144 24.3647C13.2955 24.3261 13.2649 24.2943 13.2269 24.2741C13.1889 24.2538 13.1455 24.2461 13.1028 24.2519C12.4797 24.3281 11.9001 24.6106 11.4561 25.0544C10.3541 26.1573 10.25 30.25 10.25 30.25C10.25 30.25 14.345 30.1459 15.447 29.043C15.8922 28.5993 16.175 28.0188 16.25 27.3948C16.2673 27.1989 16.0287 27.0822 15.8937 27.2233Z" fill="url(#paint2_linear_635_2046)"/>
<defs>
<linearGradient id="paint0_linear_635_2046" x1="0" y1="20.5" x2="40" y2="20.5" gradientUnits="userSpaceOnUse">
<stop stop-color="#BF64E7"/>
<stop offset="1" stop-color="#4E2EF5"/>
</linearGradient>
<linearGradient id="paint1_linear_635_2046" x1="9.50024" y1="20.4991" x2="30.4999" y2="20.4991" gradientUnits="userSpaceOnUse">
<stop stop-color="#BF64E7"/>
<stop offset="1" stop-color="#4E2EF5"/>
</linearGradient>
<linearGradient id="paint2_linear_635_2046" x1="10.25" y1="27.25" x2="16.2509" y2="27.25" gradientUnits="userSpaceOnUse">
<stop stop-color="#BF64E7"/>
<stop offset="1" stop-color="#4E2EF5"/>
</linearGradient>
</defs>
</svg>
