<svg width="48" height="44" viewBox="0 0 48 44" fill="none" xmlns="http://www.w3.org/2000/svg">
<rect width="23" height="23" transform="translate(12.5 8)" fill="url(#paint0_linear_756_7899)"/>
<g filter="url(#filter0_d_756_7899)">
<g filter="url(#filter1_d_756_7899)">
<path d="M29.1984 14.7248C28.2258 14.2782 27.1994 13.9596 26.1449 13.777C26.1354 13.7754 26.1255 13.7768 26.1168 13.781C26.1081 13.7852 26.1009 13.792 26.0962 13.8005C25.964 14.0348 25.8177 14.3414 25.7155 14.5814C24.5789 14.409 23.4228 14.409 22.2862 14.5814C22.1727 14.3138 22.0437 14.0531 21.8999 13.8005C21.8952 13.792 21.888 13.7852 21.8793 13.781C21.8705 13.7768 21.8607 13.7754 21.8512 13.777C20.7965 13.9589 19.7699 14.2776 18.7977 14.7248C18.7894 14.7279 18.7824 14.7339 18.778 14.7417C16.8337 17.647 16.3002 20.4811 16.5618 23.2795C16.5637 23.2933 16.5702 23.3048 16.5815 23.3142C17.7139 24.1525 18.9803 24.7929 20.3268 25.208C20.3363 25.211 20.3465 25.2108 20.356 25.2076C20.3654 25.2044 20.3736 25.1983 20.3793 25.1901C20.6687 24.7964 20.9243 24.3811 21.1462 23.9442C21.1508 23.9352 21.1524 23.925 21.1507 23.915C21.149 23.905 21.1441 23.8959 21.1368 23.8889L21.1199 23.8786C20.7162 23.7229 20.325 23.5364 19.9499 23.3208C19.9394 23.3148 19.9317 23.3051 19.9282 23.2936C19.9247 23.2821 19.9257 23.2696 19.9312 23.2589L19.9452 23.2411C20.0246 23.1817 20.1021 23.1208 20.1777 23.0583C20.1844 23.0529 20.1923 23.0495 20.2007 23.0484C20.2091 23.0472 20.2177 23.0484 20.2255 23.0517C22.6809 24.173 25.3387 24.173 27.764 23.0517C27.772 23.048 27.781 23.0466 27.7898 23.0478C27.7986 23.049 27.8069 23.0526 27.8137 23.0583C27.8893 23.1208 27.9668 23.1817 28.0462 23.2411C28.0528 23.2456 28.0581 23.2517 28.0617 23.2589C28.0652 23.266 28.0669 23.274 28.0665 23.282C28.0661 23.29 28.0637 23.2977 28.0595 23.3045C28.0553 23.3113 28.0494 23.3169 28.0424 23.3208C27.6689 23.5398 27.2771 23.7262 26.8715 23.8776C26.865 23.88 26.8591 23.8837 26.8543 23.8886C26.8494 23.8934 26.8457 23.8993 26.8434 23.9058C26.8411 23.912 26.8401 23.9187 26.8406 23.9253C26.8411 23.9319 26.843 23.9384 26.8462 23.9442C27.0712 24.3801 27.329 24.7964 27.6121 25.1901C27.6178 25.1983 27.626 25.2044 27.6354 25.2076C27.6449 25.2108 27.6551 25.211 27.6646 25.208C29.0137 24.7951 30.2823 24.1547 31.4155 23.3142C31.4212 23.3102 31.4259 23.3051 31.4293 23.2991C31.4327 23.2931 31.4347 23.2864 31.4352 23.2795C31.7484 20.0442 30.9112 17.2336 29.2171 14.7426C29.2156 14.7384 29.2132 14.7346 29.2099 14.7315C29.2066 14.7284 29.2027 14.7261 29.1984 14.7248ZM21.5127 21.5751C20.773 21.5751 20.1646 20.8964 20.1646 20.0639C20.1646 19.2314 20.7618 18.5517 21.5127 18.5517C22.2693 18.5517 22.8721 19.2361 22.8609 20.0639C22.8609 20.8964 22.2637 21.5751 21.5127 21.5751ZM26.4965 21.5751C25.7577 21.5751 25.1484 20.8964 25.1484 20.0639C25.1484 19.2314 25.7455 18.5517 26.4965 18.5517C27.253 18.5517 27.8568 19.2361 27.8446 20.0639C27.8446 20.8964 27.253 21.5751 26.4965 21.5751Z" fill="white"/>
</g>
</g>
<defs>
<filter id="filter0_d_756_7899" x="0.874756" y="-1.125" width="46.2502" height="46.25" filterUnits="userSpaceOnUse" color-interpolation-filters="sRGB">
<feFlood flood-opacity="0" result="BackgroundImageFix"/>
<feColorMatrix in="SourceAlpha" type="matrix" values="0 0 0 0 0 0 0 0 0 0 0 0 0 0 0 0 0 0 127 0" result="hardAlpha"/>
<feOffset dy="2.5"/>
<feGaussianBlur stdDeviation="7.8125"/>
<feComposite in2="hardAlpha" operator="out"/>
<feColorMatrix type="matrix" values="0 0 0 0 0.815149 0 0 0 0 0.6375 0 0 0 0 1 0 0 0 0.2 0"/>
<feBlend mode="normal" in2="BackgroundImageFix" result="effect1_dropShadow_756_7899"/>
<feBlend mode="normal" in="SourceGraphic" in2="effect1_dropShadow_756_7899" result="shape"/>
</filter>
<filter id="filter1_d_756_7899" x="13.9998" y="13.7764" width="20.0002" height="16.4336" filterUnits="userSpaceOnUse" color-interpolation-filters="sRGB">
<feFlood flood-opacity="0" result="BackgroundImageFix"/>
<feColorMatrix in="SourceAlpha" type="matrix" values="0 0 0 0 0 0 0 0 0 0 0 0 0 0 0 0 0 0 127 0" result="hardAlpha"/>
<feOffset dy="2.5"/>
<feGaussianBlur stdDeviation="1.25"/>
<feComposite in2="hardAlpha" operator="out"/>
<feColorMatrix type="matrix" values="0 0 0 0 0 0 0 0 0 0 0 0 0 0 0 0 0 0 0.25 0"/>
<feBlend mode="normal" in2="BackgroundImageFix" result="effect1_dropShadow_756_7899"/>
<feBlend mode="normal" in="SourceGraphic" in2="effect1_dropShadow_756_7899" result="shape"/>
</filter>
<linearGradient id="paint0_linear_756_7899" x1="0" y1="11.5" x2="23" y2="11.5" gradientUnits="userSpaceOnUse">
<stop stop-color="#BF64E7"/>
<stop offset="1" stop-color="#4E2EF5"/>
</linearGradient>
</defs>
</svg>
