<svg width="41" height="40" viewBox="0 0 41 40" fill="none" xmlns="http://www.w3.org/2000/svg">
<rect width="40" height="40" transform="translate(0.5)" fill="white"/>
<path d="M30.4001 16.9L28.7001 17.9L24.7001 11L26.4001 10L30.4001 16.9ZM18.3001 15.9L21.3001 21.1L27.4001 17.6L24.4001 12.4L18.3001 15.9ZM19.9001 20.7L17.9001 17.2L13.6001 19.7L15.6001 23.2L19.9001 20.7ZM10.6001 22.6L11.6001 24.3L14.2001 22.8L13.2001 21.1L10.6001 22.6ZM20.6001 22L20.3001 21.6L16.0001 24.1L16.3001 24.5C16.5001 24.8 16.8001 25.1 17.1001 25.3L15.5001 30H17.5001L18.9001 25.7H19.0001L20.5001 30H22.5001L20.6001 24.4C21.1001 23.7 21.1001 22.8 20.6001 22Z" fill="#6941C6"/>
<path d="M30.4001 16.9L28.7001 17.9L24.7001 11L26.4001 10L30.4001 16.9ZM18.3001 15.9L21.3001 21.1L27.4001 17.6L24.4001 12.4L18.3001 15.9ZM19.9001 20.7L17.9001 17.2L13.6001 19.7L15.6001 23.2L19.9001 20.7ZM10.6001 22.6L11.6001 24.3L14.2001 22.8L13.2001 21.1L10.6001 22.6ZM20.6001 22L20.3001 21.6L16.0001 24.1L16.3001 24.5C16.5001 24.8 16.8001 25.1 17.1001 25.3L15.5001 30H17.5001L18.9001 25.7H19.0001L20.5001 30H22.5001L20.6001 24.4C21.1001 23.7 21.1001 22.8 20.6001 22Z" fill="url(#paint0_linear_635_2060)"/>
<defs>
<linearGradient id="paint0_linear_635_2060" x1="10.6001" y1="20" x2="30.4001" y2="20" gradientUnits="userSpaceOnUse">
<stop stop-color="#BF64E7"/>
<stop offset="1" stop-color="#4E2EF5"/>
</linearGradient>
</defs>
</svg>
