<svg width="41" height="41" viewBox="0 0 41 41" fill="none" xmlns="http://www.w3.org/2000/svg">
<rect x="1" y="1.14355" width="39" height="39" fill="white"/>
<rect x="1" y="1.14355" width="39" height="39" stroke="url(#paint0_linear_21_136)"/>
<path d="M21.75 20.3936C21.75 20.7251 21.6183 21.043 21.3839 21.2774C21.1495 21.5119 20.8315 21.6436 20.5 21.6436C20.1685 21.6436 19.8505 21.5119 19.6161 21.2774C19.3817 21.043 19.25 20.7251 19.25 20.3936C19.25 20.062 19.3817 19.7441 19.6161 19.5097C19.8505 19.2753 20.1685 19.1436 20.5 19.1436C20.8315 19.1436 21.1495 19.2753 21.3839 19.5097C21.6183 19.7441 21.75 20.062 21.75 20.3936ZM29.5 17.1436V26.3936C29.5 27.2555 29.1576 28.0822 28.5481 28.6917C27.9386 29.3011 27.112 29.6436 26.25 29.6436H22.25V28.0706C22.6317 28.1845 23.0408 28.1648 23.4097 28.0148C23.7787 27.8647 24.0854 27.5933 24.2793 27.2454C24.4731 26.8974 24.5425 26.4938 24.4759 26.1011C24.4093 25.7084 24.2107 25.3501 23.913 25.0856L21.663 23.0856C21.3426 22.8006 20.9288 22.6432 20.5 22.6432C20.0712 22.6432 19.6574 22.8006 19.337 23.0856L17.087 25.0856C16.7893 25.3501 16.5907 25.7084 16.5241 26.1011C16.4575 26.4938 16.5269 26.8974 16.7207 27.2454C16.9146 27.5933 17.2213 27.8647 17.5903 28.0148C17.9592 28.1648 18.3683 28.1845 18.75 28.0706V29.6436H14.75C13.888 29.6436 13.0614 29.3011 12.4519 28.6917C11.8424 28.0822 11.5 27.2555 11.5 26.3936V17.1436H29.5ZM20.5 22.6432C20.7955 22.6432 21.0881 22.5854 21.361 22.4723C21.634 22.3592 21.8821 22.1935 22.091 21.9845C22.2999 21.7756 22.4657 21.5276 22.5787 21.2546C22.6918 20.9816 22.75 20.689 22.75 20.3936C22.75 20.0981 22.6918 19.8055 22.5787 19.5325C22.4657 19.2595 22.2999 19.0115 22.091 18.8026C21.8821 18.5936 21.634 18.4279 21.361 18.3148C21.0881 18.2018 20.7955 18.1436 20.5 18.1436C19.9033 18.1436 19.331 18.3806 18.909 18.8026C18.4871 19.2245 18.25 19.7968 18.25 20.3936C18.25 20.9903 18.4871 21.5626 18.909 21.9845C19.331 22.4065 19.9033 22.6432 20.5 22.6432ZM26.25 11.6436C27.112 11.6436 27.9386 11.986 28.5481 12.5955C29.1576 13.205 29.5 14.0316 29.5 14.8936V15.6436H11.5V14.8936C11.5 14.0316 11.8424 13.205 12.4519 12.5955C13.0614 11.986 13.888 11.6436 14.75 11.6436H26.25ZM23.31 26.8916C23.178 27.0401 22.9924 27.1301 22.794 27.1419C22.5957 27.1538 22.4007 27.0864 22.252 26.9546L21.25 26.0646V29.8936C21.25 30.0925 21.171 30.2832 21.0303 30.4239C20.8897 30.5645 20.6989 30.6436 20.5 30.6436C20.3011 30.6436 20.1103 30.5645 19.9697 30.4239C19.829 30.2832 19.75 30.0925 19.75 29.8936V26.0636L18.748 26.9536C18.5982 27.0764 18.4067 27.1365 18.2136 27.1214C18.0204 27.1062 17.8407 27.0168 17.7119 26.8721C17.5832 26.7273 17.5155 26.5383 17.5229 26.3447C17.5304 26.1512 17.6125 25.968 17.752 25.8336L20.002 23.8336C20.1393 23.7117 20.3164 23.6444 20.5 23.6444C20.6836 23.6444 20.8607 23.7117 20.998 23.8336L23.248 25.8336C23.3965 25.9656 23.4866 26.1512 23.4984 26.3495C23.5102 26.5479 23.4418 26.7428 23.31 26.8916Z" fill="#6941C6"/>
<path d="M21.75 20.3936C21.75 20.7251 21.6183 21.043 21.3839 21.2774C21.1495 21.5119 20.8315 21.6436 20.5 21.6436C20.1685 21.6436 19.8505 21.5119 19.6161 21.2774C19.3817 21.043 19.25 20.7251 19.25 20.3936C19.25 20.062 19.3817 19.7441 19.6161 19.5097C19.8505 19.2753 20.1685 19.1436 20.5 19.1436C20.8315 19.1436 21.1495 19.2753 21.3839 19.5097C21.6183 19.7441 21.75 20.062 21.75 20.3936ZM29.5 17.1436V26.3936C29.5 27.2555 29.1576 28.0822 28.5481 28.6917C27.9386 29.3011 27.112 29.6436 26.25 29.6436H22.25V28.0706C22.6317 28.1845 23.0408 28.1648 23.4097 28.0148C23.7787 27.8647 24.0854 27.5933 24.2793 27.2454C24.4731 26.8974 24.5425 26.4938 24.4759 26.1011C24.4093 25.7084 24.2107 25.3501 23.913 25.0856L21.663 23.0856C21.3426 22.8006 20.9288 22.6432 20.5 22.6432C20.0712 22.6432 19.6574 22.8006 19.337 23.0856L17.087 25.0856C16.7893 25.3501 16.5907 25.7084 16.5241 26.1011C16.4575 26.4938 16.5269 26.8974 16.7207 27.2454C16.9146 27.5933 17.2213 27.8647 17.5903 28.0148C17.9592 28.1648 18.3683 28.1845 18.75 28.0706V29.6436H14.75C13.888 29.6436 13.0614 29.3011 12.4519 28.6917C11.8424 28.0822 11.5 27.2555 11.5 26.3936V17.1436H29.5ZM20.5 22.6432C20.7955 22.6432 21.0881 22.5854 21.361 22.4723C21.634 22.3592 21.8821 22.1935 22.091 21.9845C22.2999 21.7756 22.4657 21.5276 22.5787 21.2546C22.6918 20.9816 22.75 20.689 22.75 20.3936C22.75 20.0981 22.6918 19.8055 22.5787 19.5325C22.4657 19.2595 22.2999 19.0115 22.091 18.8026C21.8821 18.5936 21.634 18.4279 21.361 18.3148C21.0881 18.2018 20.7955 18.1436 20.5 18.1436C19.9033 18.1436 19.331 18.3806 18.909 18.8026C18.4871 19.2245 18.25 19.7968 18.25 20.3936C18.25 20.9903 18.4871 21.5626 18.909 21.9845C19.331 22.4065 19.9033 22.6432 20.5 22.6432ZM26.25 11.6436C27.112 11.6436 27.9386 11.986 28.5481 12.5955C29.1576 13.205 29.5 14.0316 29.5 14.8936V15.6436H11.5V14.8936C11.5 14.0316 11.8424 13.205 12.4519 12.5955C13.0614 11.986 13.888 11.6436 14.75 11.6436H26.25ZM23.31 26.8916C23.178 27.0401 22.9924 27.1301 22.794 27.1419C22.5957 27.1538 22.4007 27.0864 22.252 26.9546L21.25 26.0646V29.8936C21.25 30.0925 21.171 30.2832 21.0303 30.4239C20.8897 30.5645 20.6989 30.6436 20.5 30.6436C20.3011 30.6436 20.1103 30.5645 19.9697 30.4239C19.829 30.2832 19.75 30.0925 19.75 29.8936V26.0636L18.748 26.9536C18.5982 27.0764 18.4067 27.1365 18.2136 27.1214C18.0204 27.1062 17.8407 27.0168 17.7119 26.8721C17.5832 26.7273 17.5155 26.5383 17.5229 26.3447C17.5304 26.1512 17.6125 25.968 17.752 25.8336L20.002 23.8336C20.1393 23.7117 20.3164 23.6444 20.5 23.6444C20.6836 23.6444 20.8607 23.7117 20.998 23.8336L23.248 25.8336C23.3965 25.9656 23.4866 26.1512 23.4984 26.3495C23.5102 26.5479 23.4418 26.7428 23.31 26.8916Z" fill="url(#paint1_linear_21_136)"/>
<defs>
<linearGradient id="paint0_linear_21_136" x1="0.5" y1="20.6436" x2="40.5" y2="20.6436" gradientUnits="userSpaceOnUse">
<stop stop-color="#BF64E7"/>
<stop offset="1" stop-color="#4E2EF5"/>
</linearGradient>
<linearGradient id="paint1_linear_21_136" x1="11.5" y1="21.1436" x2="29.5" y2="21.1436" gradientUnits="userSpaceOnUse">
<stop stop-color="#BF64E7"/>
<stop offset="1" stop-color="#4E2EF5"/>
</linearGradient>
</defs>
</svg>
