<svg width="710" height="733" viewBox="0 0 710 733" fill="none" xmlns="http://www.w3.org/2000/svg">
<g style="mix-blend-mode:hard-light">
<circle cx="364.654" cy="367" r="326" fill="url(#paint0_radial_708_4073)"/>
</g>
<g opacity="0.2">
<path d="M671.499 55.1783L671.088 58.2296L494.117 82.0678C463.974 68.2703 431.316 59.015 397.018 55.1783H671.499ZM673.787 53.1783L678.951 14.8941V53.1783H673.787ZM671.499 677.822L397.017 677.822C431.315 673.985 463.974 664.73 494.117 650.932L671.087 674.771L671.499 677.822ZM673.517 677.822L673.143 675.047L678.951 675.83V677.822H673.517ZM678.951 673.812L672.866 672.992L649.369 498.8C664.658 467.113 674.87 432.52 678.951 396.075L678.951 673.812ZM680.951 677.822V676.099L693.739 677.822H680.951ZM673.787 679.822H678.951V718.106L673.787 679.822ZM693.739 55.1783L680.951 56.9009V55.1783H693.739ZM673.517 55.1783H678.951V57.1703L673.143 57.9527L673.517 55.1783ZM672.866 60.0081L678.951 59.1884V336.926C674.87 300.481 664.658 265.888 649.369 234.2L672.866 60.0081ZM648.88 237.825C667.319 277.002 677.984 320.556 678.888 366.501C677.983 412.445 667.318 455.999 648.88 495.176L632.735 375.484C632.329 372.475 631.882 369.481 631.394 366.5C631.882 363.519 632.329 360.525 632.735 357.516L648.88 237.825ZM647.306 498.47C615.206 564.678 560.783 618.068 493.808 648.873L362.066 631.127C498.024 611.234 605.656 506.882 630.322 372.67C630.47 373.696 630.614 374.723 630.753 375.751L647.306 498.47ZM630.753 357.249C630.614 358.277 630.47 359.304 630.322 360.33C605.656 226.118 498.024 121.766 362.066 101.873L493.809 84.1274C560.783 114.932 615.206 168.322 647.306 234.53L630.753 357.249ZM490.373 82.5721L354.654 100.854L218.934 82.5721C258.448 64.9655 302.218 55.1783 348.275 55.1783H361.118C407.145 55.1906 450.885 64.9765 490.373 82.5721ZM215.499 84.1274L347.242 101.873C211.284 121.766 103.652 226.118 78.986 360.33C78.8376 359.304 78.694 358.277 78.5552 357.249L62.0016 234.53C94.1015 168.322 148.525 114.932 215.499 84.1274ZM312.29 55.1783C277.992 59.0149 245.333 68.2703 215.191 82.0678L38.2204 58.2295L37.8088 55.1783L312.29 55.1783ZM35.7907 55.1783L36.1649 57.9527L30.3567 57.1703V55.1783H35.7907ZM30.3567 59.1884L36.4422 60.0081L59.939 234.2C44.6501 265.887 34.4377 300.48 30.3567 336.925L30.3567 59.1884ZM28.3567 55.1783V56.9009L15.5686 55.1783H28.3567ZM347.994 677.822C302.039 677.782 258.367 667.999 218.934 650.428L354.653 632.146L490.373 650.428C450.86 668.035 407.09 677.822 361.032 677.822H347.994ZM78.986 372.67C103.651 506.881 211.283 611.234 347.241 631.127L215.499 648.873C148.525 618.068 94.1014 564.678 62.0016 498.47L78.5552 375.751C78.694 374.723 78.8376 373.696 78.986 372.67ZM76.5732 357.516C76.979 360.525 77.4261 363.519 77.9141 366.5C77.4261 369.481 76.979 372.475 76.5732 375.484L60.4278 495.175C41.989 455.998 31.324 412.444 30.4193 366.499C31.3243 320.555 41.9893 277.002 60.4279 237.824L76.5732 357.516ZM30.3566 396.074C34.4376 432.519 44.65 467.112 59.939 498.8L36.4421 672.992L30.3566 673.812V396.074ZM30.3566 675.83L36.1648 675.047L35.7906 677.822H30.3566V675.83ZM37.8087 677.822L38.2203 674.77L215.191 650.932C245.333 664.73 277.991 673.985 312.289 677.822H37.8087ZM30.3566 679.822H35.5208L30.3566 718.106V679.822ZM28.3566 676.099V677.822H15.5683L28.3566 676.099ZM35.5209 53.1783H30.3567L30.3567 14.894L35.5209 53.1783Z" stroke="url(#paint1_linear_708_4073)" stroke-width="2"/>
</g>
<rect x="556.781" y="74.5771" width="304.922" height="642.127" rx="152.461" transform="rotate(60 556.781 74.5771)" stroke="url(#paint2_linear_708_4073)"/>
<rect x="556.781" y="74.5771" width="304.922" height="642.127" rx="152.461" transform="rotate(60 556.781 74.5771)" stroke="url(#paint3_linear_708_4073)"/>
<defs>
<radialGradient id="paint0_radial_708_4073" cx="0" cy="0" r="1" gradientUnits="userSpaceOnUse" gradientTransform="translate(567.154 257.5) rotate(114.938) scale(480.278)">
<stop stop-color="#BF64E7"/>
<stop offset="1" stop-color="#4E2EF5" stop-opacity="0"/>
</radialGradient>
<linearGradient id="paint1_linear_708_4073" x1="0.653809" y1="366.5" x2="708.654" y2="366.5" gradientUnits="userSpaceOnUse">
<stop stop-color="#BF64E7"/>
<stop offset="1" stop-color="#4E2EF5"/>
</linearGradient>
<linearGradient id="paint2_linear_708_4073" x1="640.295" y1="662.678" x2="861.209" y2="19.2844" gradientUnits="userSpaceOnUse">
<stop stop-color="white"/>
<stop offset="1" stop-color="white" stop-opacity="0"/>
</linearGradient>
<linearGradient id="paint3_linear_708_4073" x1="556.964" y1="395.458" x2="862.886" y2="395.458" gradientUnits="userSpaceOnUse">
<stop stop-color="#BF64E7"/>
<stop offset="1" stop-color="#4E2EF5"/>
</linearGradient>
</defs>
</svg>
