<?xml version="1.0" encoding="UTF-8"?>
<!DOCTYPE svg PUBLIC "-//W3C//DTD SVG 1.1//EN" "http://www.w3.org/Graphics/SVG/1.1/DTD/svg11.dtd">
<!-- Creator: CorelDRAW -->
<svg xmlns="http://www.w3.org/2000/svg" xml:space="preserve" width="9.46617in" height="10.9113in" version="1.1" style="shape-rendering:geometricPrecision; text-rendering:geometricPrecision; image-rendering:optimizeQuality; fill-rule:evenodd; clip-rule:evenodd"
viewBox="0 0 4180.79 4819.02"
 xmlns:xlink="http://www.w3.org/1999/xlink"
 xmlns:xodm="http://www.corel.com/coreldraw/odm/2003">
 <defs>
  <style type="text/css">
   <![CDATA[
    .fil1 {fill:url(#id0)}
    .fil2 {fill:url(#id1)}
    .fil0 {fill:url(#id2)}
   ]]>
  </style>
  <linearGradient id="id0" gradientUnits="userSpaceOnUse" x1="1573.78" y1="1338.02" x2="3135.1" y2="3364.89">
   <stop offset="0" style="stop-opacity:1; stop-color:#DE24FF"/>
   <stop offset="1" style="stop-opacity:1; stop-color:#0209CC"/>
  </linearGradient>
  <linearGradient id="id1" gradientUnits="userSpaceOnUse" xlink:href="#id0" x1="1313.48" y1="2277.85" x2="2003.23" y2="2865.89">
  </linearGradient>
  <linearGradient id="id2" gradientUnits="userSpaceOnUse" xlink:href="#id0" x1="1121.91" y1="743.9" x2="4012.38" y2="4437.44">
  </linearGradient>
 </defs>
 <g id="PowerClip_x0020_Contents">
  <metadata id="CorelCorpID_0Corel-Layer"/>
  <g id="_2068481800928">
   <path class="fil0" d="M1456.85 3945.7c23.64,2.48 55.69,25.92 79.71,40.12l546.17 314.12c30.46,5.92 287.43,-155.99 317.66,-172.99 312.99,-176.01 622.54,-365.43 935.1,-540.35 106.39,-59.54 208.45,-119.52 313.33,-180.7l312.37 -178.76 2.33 255.07c-4.68,18.1 -294.69,178.98 -330.45,198.93 -333.5,185.98 -679.86,395.32 -1017,587.07 -116.58,66.31 -225.21,129.88 -338.73,195.96 -217.45,126.59 -149.22,133.14 -339.17,19.73 -75.87,-45.29 -656.47,-373.64 -672.46,-392.43 -39.81,-11.54 -715.13,-409.74 -790.4,-452.36 -39.21,-22.21 -243.73,-132.87 -257.22,-156.89l0.31 -255c51.99,24 104.69,58.42 155.48,87.02l772.53 445.67c44.76,25.37 293.76,162.97 310.44,185.79zm1729.61 -3065.13l777.07 449.48 -0.5 1645.4 -1671.18 961.9c-32.56,19.14 -185.15,118.64 -213.25,109.39 -34.51,-11.36 -1448.59,-836.39 -1454.97,-842.94l-405.9 -228.49 0.14 -1638.5c14.67,-27.04 151.04,-95.24 184.41,-114.96 489.63,-289.28 1002.38,-570.25 1488.88,-859.65 218.32,-129.86 179.38,-128 278.97,-69.18 30.97,18.29 57.51,33.04 90.23,51.85 61.46,35.33 121.42,70.65 184.45,106.47l558.04 321.85c58.32,33.06 132.06,72.7 183.61,107.38zm-3185.76 2741.12c27.82,6.16 1281.39,733.17 1400.39,803.91 66.51,39.54 139.49,75.38 199.78,117.06 69.32,31.09 464.64,274.76 487.57,276.36 22.88,1.59 744.26,-424.07 803.63,-457.62 40.85,-23.09 1251.06,-729.3 1288.47,-741.14l0.26 -2421.43c-39.36,-13.05 -2015.43,-1161.2 -2021.61,-1168.29 -80.62,-23.36 -29.28,-58.97 -144.76,8.49l-1475.79 852.29c-52.66,29.59 -500.22,294.59 -538.63,307.42l0.7 2422.96z"/>
   <path class="fil1" d="M1982.39 3421.31c-20.22,-148.36 198.3,-173.32 216.73,-31.37 18.89,145.39 -197.99,168.95 -216.73,31.37zm1062.24 -690.21c138.44,-60.07 213.19,149.73 82.19,200.41 -68.98,26.68 -124.94,-13.88 -143.04,-61.81 -27.23,-72.09 13.75,-118.15 60.85,-138.6zm-1989.67 0.17c136.24,-59.74 213.73,148.12 81.92,199.93 -129.53,50.91 -220.03,-139.38 -81.92,-199.93zm1185.05 -524.72c65.79,-22.24 662.61,-390.44 716.26,-405.25 15.23,32.36 43.43,50.53 93.73,54.89 1.2,122.95 5.5,761.3 -2.65,820.66 -95.99,46.47 -117.66,74.17 -114.74,200.78l-702.7 406.62c-17.43,-12.41 -24.84,-26.21 -42.53,-37.36 -21.19,-13.36 -39.48,-12.53 -60.45,-21.82l1.94 -812.17c88.86,-44.63 131.88,-79.46 111.15,-206.35zm-1108.24 -350.01c49.89,-4.32 78.31,-22.92 93.68,-54.93 35.29,9.82 303.47,171.18 361.82,204.47 56.59,32.29 316.22,187.74 353.97,200.6 -20.8,128.78 25.22,163.32 112.28,206.15 8.1,128.23 1.82,657.21 1.86,791.93 0.01,31.99 -10.02,22.83 -32.62,30.23 -49.8,16.29 -41.02,27.8 -70.78,48.46l-703.72 -404.66c3.26,-127.79 -17.59,-156.19 -116.72,-201.93l0.24 -820.31zm935.64 296.9c136.01,-33.38 188.36,176.98 52.41,211.4 -145.77,36.91 -195.72,-176.22 -52.41,-211.4zm985.83 -576.33c145.03,-47.06 190.66,173.44 65.32,208.99 -139.42,39.54 -202.41,-164.51 -65.32,-208.99zm-1993.09 1.92c65.85,-25.05 125.58,20.08 140.19,69.48 18.35,62.02 -18.88,119.3 -66.43,136.01 -132.52,46.57 -215.75,-151.49 -73.77,-205.49zm945.94 -419.82c65.38,43.26 103.88,42.96 170.55,-2.42l772.15 442.31c-26.4,96.7 -23.18,68.14 -2.19,162.3l-725.52 415.17c-50.94,-97.25 -210.22,-97.33 -262.28,2.49l-724.83 -416.03c21.49,-94.37 25.44,-67.85 0.13,-161.56l772 -442.26zm51.54 -166.26c107.35,-48.94 166.43,109.97 68.83,152.87 -51.47,22.61 -97.77,-6.98 -112.89,-39.84 -21.47,-46.63 -7.15,-89.69 44.06,-113.03zm-1113.83 1872.9c45.22,153.04 159.38,98.9 222.7,136.2l690.72 398.82c100.81,60.11 67.91,23.48 97.37,78.8 49.78,93.47 175.75,105.31 246.39,35.01 44.49,-44.27 12.38,-49.65 58.48,-76.91l776.52 -448.25c33.38,-13.82 133.96,19.22 188.72,-88.72 53.6,-105.67 -24.96,-138.06 -25.8,-209.97 -0.37,-31.41 0.38,-63.64 0.38,-95.19 0,-86.82 -6.25,-779.78 3.77,-807.19 6.01,-16.43 23.44,-32.9 32.11,-62.07 26.57,-89.38 -28.41,-200.54 -159.99,-200.33 -46.73,0.07 -65.33,-19.01 -126.86,-55.28l-230.04 -133.93 -498.44 -288.19c-23.88,-22.22 -20.78,-51.37 -52.66,-76.03 -24.29,-18.8 -58.7,-30.48 -97.42,-24.4 -97.13,15.28 -59.72,75.65 -141.53,121.26l-660.77 381.45c-111.49,63.15 -93.66,70.82 -181.93,75.07 -116.65,5.61 -181.03,134.8 -124.63,233.52 27.99,49 21.39,34.54 21.14,105.18l0.03 785.12c0.27,70.34 7.54,55.41 -22.01,104.28 -19.53,32.29 -22.65,70.08 -16.26,111.76z"/>
   <polygon class="fil2" points="1256.57,2717.71 1908.19,3094.61 1910.91,2339.02 1257.96,1964.12 "/>
  </g>
 </g>
</svg>
